<svg xmlns="http://www.w3.org/2000/svg" width="54" height="54" viewBox="0 0 54 54">
    <defs>
        <filter id="a" width="102.5%" height="105.9%" x="-1.2%" y="-2.1%" filterUnits="objectBoundingBox">
            <feOffset dy="2" in="SourceAlpha" result="shadowOffsetOuter1"/>
            <feGaussianBlur in="shadowOffsetOuter1" result="shadowBlurOuter1" stdDeviation="2"/>
            <feColorMatrix in="shadowBlurOuter1" result="shadowMatrixOuter1" values="0 0 0 0 0 0 0 0 0 0 0 0 0 0 0 0 0 0 0.24535779 0"/>
            <feMerge>
                <feMergeNode in="shadowMatrixOuter1"/>
                <feMergeNode in="SourceGraphic"/>
            </feMerge>
        </filter>
    </defs>
    <g fill="#F5AC33" fill-rule="nonzero" filter="url(#a)" transform="translate(-485 -14)">
        <path d="M519.87 17.386c-11.905-4.326-25.16 1.81-29.487 13.745-4.327 11.934 1.84 25.157 13.746 29.483 11.906 4.326 25.162-1.81 29.488-13.745 4.327-11.934-1.84-25.157-13.746-29.483zm-1.81 31.294a6.094 6.094 0 0 1-2.485 1.012c-.89.184-1.81.184-2.793.061-.675-.092-1.38-.214-2.086-.43l-1.38 3.836-2.21-.798 1.38-3.835-2.24-.828-1.38 3.835-2.21-.798 1.381-3.835-4.786-1.749.828-2.3.706.183c.245.092.583.154 1.043.277.583.153.798.122.86.153.245 0 .337-.061.337-.061.061-.062.122-.154.184-.338l4.603-12.67c.06-.185.06-.308.06-.43 0-.031-.06-.123-.214-.276-.215-.215-.49-.369-.736-.553-.338-.184-.614-.306-.798-.43l-.675-.306.828-2.301 4.664 1.687 1.381-3.773 2.21.797-1.32 3.835 2.24.829 1.38-3.835 2.21.798-1.411 3.865c.46.184.89.43 1.288.644.706.43 1.32.92 1.903 1.504a5.22 5.22 0 0 1 1.197 2.025c.245.797.214 1.656-.093 2.515-.276.737-.675 1.35-1.227 1.841-.522.46-1.166.798-1.872 1.013-.43.122-.92.214-1.442.276.522.43.982.859 1.381 1.35.552.644.951 1.38 1.197 2.24.245.858.184 1.81-.154 2.76-.399.89-.951 1.657-1.749 2.21z"/>
        <path d="M514.8 44.69c-.666 1.81-2.664 2.764-4.47 2.097L507 45.579 509.378 39l3.33 1.208c1.806.667 2.726 2.67 2.092 4.481zM515.847 35.277c-.487 1.368-2.006 2.052-3.382 1.568L510 35.96 511.806 31l2.465.884c1.347.513 2.063 2.053 1.576 3.393z"/>
    </g>
</svg>
