<svg xmlns="http://www.w3.org/2000/svg" width="14" height="11" viewBox="0 0 14 11">
    <path fill="#FFF" fill-rule="evenodd" d="M0 8.89h8.291c.195-.468.557-.703 1.084-.703s.889.235 1.084.704h2.666v.937h-2.666c-.195.469-.557.703-1.084.703s-.889-.234-1.084-.703H0v-.937zm0-3.984h2.666c.195-.469.557-.703 1.084-.703s.889.234 1.084.703h8.291v.938H4.834c-.195.469-.557.703-1.084.703s-.889-.234-1.084-.703H0v-.938zM0 .922h8.291c.195-.469.557-.703 1.084-.703s.889.234 1.084.703h2.666v.937h-2.666c-.195.47-.557.704-1.084.704s-.889-.235-1.084-.704H0V.922z"/>
</svg>
