<svg xmlns="http://www.w3.org/2000/svg" width="150" height="19" viewBox="0 0 150 19">
    <g fill="none" fill-rule="nonzero">
        <g transform="rotate(-44 9.812 8.287)">
            <path fill="#4C8577" d="M3.853 13.79c-2.688-2.732-2.688-7.177 0-9.909A6.794 6.794 0 0 1 8.727 1.83a6.79 6.79 0 0 1 4.874 2.052l4.086 4.01a.852.852 0 0 0 1.219 0 .886.886 0 0 0 0-1.238l-4.085-4.01A8.491 8.491 0 0 0 8.728.078a8.492 8.492 0 0 0-6.093 2.565c-3.36 3.415-3.36 8.97 0 12.385l4.257 4.179a.854.854 0 0 0 1.22 0 .886.886 0 0 0 0-1.239l-4.26-4.178z"/>
            <path fill="#000" d="M25.162 15.143c2.688 2.732 2.688 7.177 0 9.909a6.794 6.794 0 0 1-4.874 2.052 6.79 6.79 0 0 1-4.874-2.052l-4.257-4.178a.852.852 0 0 0-1.219 0 .886.886 0 0 0 0 1.238l4.256 4.178a8.491 8.491 0 0 0 6.093 2.565 8.492 8.492 0 0 0 6.093-2.565c3.36-3.415 3.36-8.97 0-12.385l-4.108-4.033a.854.854 0 0 0-1.219 0 .886.886 0 0 0 0 1.238l4.11 4.033z"/>
            <path fill="#000" d="M22.259 9.867c.341.33.346.877.011 1.224l-5.302 5.49a.865.865 0 0 1-1.223.032.865.865 0 0 1-.012-1.224l5.303-5.49a.865.865 0 0 1 1.223-.032z"/>
            <rect width="1.717" height="4.362" x="7.709" y="15.464" fill="#4C8577" rx=".858" transform="rotate(44 8.568 17.645)"/>
            <rect width="1.717" height="4.362" x="16.653" y="6.051" fill="#4C8577" rx=".858" transform="rotate(44 17.512 8.232)"/>
        </g>
        <g fill="#000">
            <path d="M105.049 2.13c3.786.075 6.82 3.217 6.763 7.004a6.792 6.792 0 0 1-2.084 4.816 6.788 6.788 0 0 1-4.886 1.915l-5.896-.013a.853.853 0 0 0-.871.841.863.863 0 0 0 .845.876l5.895.013a8.489 8.489 0 0 0 6.108-2.393 8.49 8.49 0 0 0 2.605-6.02c.072-4.734-3.72-8.662-8.454-8.755l-5.69-.015a.854.854 0 0 0-.872.842.863.863 0 0 0 .845.876l5.692.013z"/>
            <path d="M99.345.431c.47 0 .853.384.853.857V8.79a.855.855 0 0 1-.853.857.855.855 0 0 1-.854-.857v-7.5c0-.474.382-.858.854-.858z"/>
        </g>
        <g fill="#4C8577" transform="rotate(-44 34.2 -53.54)">
            <path d="M3.83 13.55c-2.672-2.683-2.672-7.052 0-9.736a6.792 6.792 0 0 1 4.845-2.017c1.83 0 3.551.716 4.845 2.017l4.06 3.94a.853.853 0 0 0 1.212 0 .863.863 0 0 0 0-1.217l-4.06-3.94A8.489 8.489 0 0 0 8.675.078a8.49 8.49 0 0 0-6.056 2.52c-3.34 3.356-3.34 8.815 0 12.17l4.232 4.106a.854.854 0 0 0 1.212 0 .863.863 0 0 0 0-1.216L3.83 13.55z"/>
            <rect width="1.706" height="4.286" x="7.663" y="15.196" rx=".853" transform="rotate(44 8.516 17.339)"/>
            <rect width="1.706" height="4.286" x="16.553" y="5.946" rx=".853" transform="rotate(44 17.406 8.09)"/>
        </g>
        <path fill="#4C8577" d="M73.74 7.028c1.695 0 3.1.582 4.213 1.746 1.012 1.061 1.519 2.317 1.519 3.769 0 1.458-.535 2.732-1.605 3.822C76.797 17.455 75.422 18 73.74 18c-1.688 0-3.066-.545-4.136-1.635C68.535 15.275 68 14 68 12.543c0-1.445.506-2.698 1.519-3.76 1.114-1.17 2.52-1.755 4.222-1.755zm0 1.314c-1.174 0-2.183.412-3.026 1.237-.844.825-1.266 1.823-1.266 2.993 0 .754.192 1.457.577 2.11a3.989 3.989 0 0 0 1.56 1.51 4.453 4.453 0 0 0 2.156.532c.783 0 1.502-.177 2.156-.532a3.989 3.989 0 0 0 1.56-1.51 4.081 4.081 0 0 0 .577-2.11c0-1.17-.424-2.168-1.27-2.993-.848-.825-1.855-1.237-3.023-1.237zM82.169 3c.324 0 .601.109.83.326.23.217.345.48.345.787 0 .3-.115.559-.345.776-.229.218-.506.326-.83.326-.317 0-.59-.108-.82-.326a1.034 1.034 0 0 1-.344-.776c0-.307.115-.57.344-.787.23-.217.503-.326.82-.326zm-.709 4.297h1.428V17.73H81.46V7.297zm3.932 0h1.418v1.87c.567-.716 1.195-1.252 1.883-1.607a4.834 4.834 0 0 1 2.248-.532c.823 0 1.554.198 2.192.595.638.396 1.109.93 1.412 1.601.304.672.456 1.717.456 3.137v5.37h-1.407v-4.977c0-1.202-.054-2.005-.162-2.407-.17-.691-.486-1.21-.952-1.559-.466-.348-1.073-.523-1.823-.523-.857 0-1.625.269-2.303.806-.678.537-1.126 1.202-1.342 1.995-.135.518-.202 1.464-.202 2.839v3.826H85.39V7.297z"/>
        <path fill="#000" d="M117 6.297h1.437v1.525c.429-.601.88-1.05 1.357-1.348a2.766 2.766 0 0 1 1.487-.446c.388 0 .804.118 1.246.355l-.734 1.132c-.295-.122-.542-.183-.743-.183-.47 0-.921.184-1.357.552-.435.368-.767.938-.995 1.712-.174.595-.261 1.797-.261 3.606v3.53H117V6.296zM124.215 2c.322 0 .596.109.824.326.228.217.342.48.342.787 0 .3-.114.559-.342.776a1.15 1.15 0 0 1-.824.326c-.315 0-.586-.108-.814-.326a1.037 1.037 0 0 1-.342-.776c0-.307.114-.57.342-.787.228-.217.5-.326.814-.326zm-.703 4.297h1.416V16.73h-1.416V6.297zm3.296 0h1.497l3.658 7.596 3.627-7.596h1.507l-5.004 10.434h-.251l-5.034-10.434zm21.644 6.972l1.186.595c-.388.729-.837 1.317-1.346 1.765a5.393 5.393 0 0 1-1.719 1.02c-.636.234-1.356.351-2.16.351-1.782 0-3.175-.558-4.18-1.674-1.005-1.115-1.508-2.377-1.508-3.783 0-1.324.426-2.503 1.277-3.54 1.078-1.316 2.522-1.975 4.33-1.975 1.863 0 3.35.675 4.462 2.024.79.952 1.193 2.142 1.206 3.568h-9.828c.027 1.214.432 2.21 1.216 2.987.784.777 1.752 1.165 2.904 1.165.556 0 1.097-.092 1.623-.278a4.315 4.315 0 0 0 1.342-.738c.368-.307.767-.803 1.195-1.487zm0-2.81c-.187-.716-.46-1.288-.818-1.717-.359-.428-.833-.773-1.422-1.035a4.525 4.525 0 0 0-1.86-.394c-1.071 0-1.992.33-2.763.988-.563.48-.988 1.199-1.276 2.158h8.14z"/>
    </g>
</svg>
