<svg xmlns="http://www.w3.org/2000/svg" width="11" height="14" viewBox="0 0 11 14">
    <path fill="#545454" fill-rule="evenodd" d="M5.5 13.5a1.21 1.21 0 0 1-.906-.39 1.287 1.287 0 0 1-.375-.922H6.78c0 .354-.125.661-.375.921s-.552.391-.906.391zm4.219-3.906L11 10.906v.656H0v-.656l1.281-1.312V6.03c0-.979.308-1.849.922-2.61a4.205 4.205 0 0 1 2.328-1.483v-.47c0-.27.089-.5.266-.687C4.974.594 5.208.5 5.5.5s.526.094.703.281a.964.964 0 0 1 .266.688v.468c.937.23 1.713.724 2.328 1.485.614.76.922 1.63.922 2.61v3.562z"/>
</svg>
